HIERARCHY
ROOT Hips
{
	OFFSET 0.00000 0.00000 0.00000
	CHANNELS 6 Xposition Yposition Zposition Zrotation Yrotation Xrotation 
	JOINT LHipJoint
	{
		OFFSET 0 0 0
		CHANNELS 3 Zrotation Yrotation Xrotation
		JOINT LeftHip
		{
			OFFSET 1.36337 -1.57426 1.11036
			CHANNELS 3 Zrotation Yrotation Xrotation
			JOINT LeftKnee
			{
				OFFSET 2.38468 -6.55187 0.00000
				CHANNELS 3 Zrotation Yrotation Xrotation
				JOINT LeftAnkle
				{
					OFFSET 2.37166 -6.51609 0.00000
					CHANNELS 3 Zrotation Yrotation Xrotation
					JOINT LeftToe
					{
						OFFSET 0.29078 -0.79891 2.01393
						CHANNELS 3 Zrotation Yrotation Xrotation
						End Site
						{
							OFFSET 0.00000 -0.00000 1.07924
						}
					}
				}
			}
		}
	}
	JOINT RHipJoint
	{
		OFFSET 0 0 0
		CHANNELS 3 Zrotation Yrotation Xrotation
		JOINT RightHip
		{
			OFFSET -1.36349 -1.57426 1.11036
			CHANNELS 3 Zrotation Yrotation Xrotation
			JOINT RightKnee
			{
				OFFSET -2.29562 -6.30717 0.00000
				CHANNELS 3 Zrotation Yrotation Xrotation
				JOINT RightAnkle
				{
					OFFSET -2.40985 -6.62100 0.00000
					CHANNELS 3 Zrotation Yrotation Xrotation
					JOINT RightToe
					{
						OFFSET -0.23197 -0.63733 1.92232
						CHANNELS 3 Zrotation Yrotation Xrotation
						End Site
						{
							OFFSET -0.00000 -0.00000 1.01562
						}
					}
				}
			}
		}
	}
	JOINT lowerback
	{
		OFFSET 0 0 0
		CHANNELS 3 Zrotation Yrotation Xrotation
		JOINT Chest
		{
			OFFSET -0.08565 2.03602 -0.24562
			CHANNELS 3 Zrotation Yrotation Xrotation
			JOINT Chest2
			{
				OFFSET -0.00036 2.05693 0.00216
				CHANNELS 3 Zrotation Yrotation Xrotation
				JOINT lowerneck
				{
					OFFSET 0 0 0
					CHANNELS 3 Zrotation Yrotation Xrotation
					JOINT Neck
					{
						OFFSET -0.03664 1.69515 0.31789
						CHANNELS 3 Zrotation Yrotation Xrotation
						JOINT Head
						{
							OFFSET 0.00932 1.70181 -0.46013
							CHANNELS 3 Zrotation Yrotation Xrotation
							End Site
							{
								OFFSET 0.01243 1.77620 -0.19377
							}
						}
					}
				}
				JOINT LeftCollar
				{
					OFFSET 0 0 0
					CHANNELS 3 Zrotation Yrotation Xrotation
					JOINT LeftShoulder
					{
						OFFSET 3.74344 0.81315 -0.36647
CHANNELS 3 Zrotation Xrotation Yrotation
						JOINT LeftElbow
						{
OFFSET 0 -4.971850 -0.000000
CHANNELS 3 Zrotation Xrotation Yrotation
							JOINT LeftWrist
							{
OFFSET 0 -3.358110 0.000000
CHANNELS 3 Zrotation Xrotation Yrotation
								JOINT lhand
								{
									OFFSET 0 0 0
CHANNELS 3 Zrotation Xrotation Yrotation
									JOINT LFingers
									{
OFFSET 0 -0.622780 0.000000
CHANNELS 3 Zrotation Xrotation Yrotation
										End Site
										{
OFFSET 0 -0.502100 0.000000
										}
									}
								}
								JOINT LThumb
								{
OFFSET 0 0.000000 0.000000
CHANNELS 3 Zrotation Xrotation Yrotation
									End Site
									{
OFFSET 0 -0.509760 0.509760
									}
								}
							}
						}
					}
				}
				JOINT RightCollar
				{
					OFFSET 0 0 0
					CHANNELS 3 Zrotation Yrotation Xrotation
					JOINT RightShoulder
					{
						OFFSET -3.75385 0.50666 -0.06525
CHANNELS 3 Zrotation Xrotation Yrotation
						JOINT RightElbow
						{
OFFSET 0 -4.964930 -0.000000
CHANNELS 3 Zrotation Xrotation Yrotation
							JOINT RightWrist
							{
OFFSET 0 -3.349290 0.000000
CHANNELS 3 Zrotation Xrotation Yrotation
								JOINT rhand
								{
									OFFSET 0 0 0
CHANNELS 3 Zrotation Xrotation Yrotation
									JOINT RFingers
									{
OFFSET 0 -0.638040 0.000000
CHANNELS 3 Zrotation Xrotation Yrotation
										End Site
										{
OFFSET 0 -0.514410 0.000000
										}
									}
								}
								JOINT RThumb
								{
OFFSET 0 0.000000 0.000000
CHANNELS 3 Zrotation Xrotation Yrotation
									End Site
									{
OFFSET 0 -0.522260 0.522260
									}
								}
							}
						}
					}
				}
			}
		}
	}
}
MOTION
Frames: 4
Frame Time: 0.008333333333333333
6.257939 15.399828 1.300093 177.052336 -60.320602 -173.429235 0.000000 0.000000 0.000000 -9.405465 15.881915 -31.687101 9.766234 17.276251 58.704112 2.658087 1.622999 -31.462053 0.538811 -4.701383 -13.059059 0.000000 0.000000 0.000000 -0.032173 12.201075 -33.060082 -6.579142 -14.966974 47.263930 -0.608646 9.090641 -14.368088 -0.306180 3.557437 -9.834772 -7.782751 -2.429704 21.433773 -0.986367 -5.571603 7.376627 4.652425 -3.139992 -3.252820 -15.427206 -13.286653 -22.139916 20.032636 -18.940818 17.444139 6.342393 -7.614171 13.176394 0.000000 0.000000 0.000000 11.615947 -9.753790 -27.937004 37.277977 -46.371860 16.440938 25.106032 -26.732837 10.264871 0.000000 0.000000 0.000000 -7.125000 0.000000 0.000000 -1.360970 18.672160 -0.853826 0.000000 0.000000 0.000000 -30.555075 -56.794491 37.345447 -147.209394 -43.168434 -106.721379 1.352088 -60.450947 20.352795 0.000000 0.000000 0.000000 7.125000 0.000000 0.000000 28.508669 48.081710 -2.347330
6.258202 15.399972 1.298378 176.911471 -59.805838 -173.359740 0.000000 0.000000 0.000000 -9.554758 16.132940 -31.547320 9.749360 17.266434 58.647228 2.618530 1.927140 -31.343027 0.483096 -4.453706 -12.357226 0.000000 0.000000 0.000000 -0.093163 12.340395 -33.202583 -6.584002 -14.971313 47.282703 -0.580840 9.407061 -14.155914 -0.306284 3.557991 -9.836429 -8.059011 -2.592902 21.526355 -0.819527 -5.841537 7.308709 5.053009 -3.273530 -3.287856 -15.782024 -13.208066 -21.996808 20.151396 -18.735118 17.333046 6.501493 -7.548475 13.116663 0.000000 0.000000 0.000000 11.190800 -9.549322 -27.556343 37.354783 -46.422198 16.496557 25.116303 -26.366034 10.099688 0.000000 0.000000 0.000000 -7.125000 0.000000 0.000000 -1.345182 18.852255 -0.838596 0.000000 0.000000 0.000000 -30.560803 -56.849759 37.720986 -147.341014 -43.066259 -106.811323 1.347987 -60.581512 20.182658 0.000000 0.000000 0.000000 7.125000 0.000000 0.000000 28.416319 47.932409 -2.226164
6.249690 15.398936 1.297363 176.970352 -59.186606 -173.528057 0.000000 0.000000 0.000000 -9.577928 16.452727 -31.280517 9.739367 17.260630 58.613612 2.635237 2.073554 -31.495406 0.426330 -4.190447 -11.613087 0.000000 0.000000 0.000000 -0.057035 12.596927 -33.239391 -6.582955 -14.970388 47.278829 -0.551091 9.710481 -13.925418 -0.310442 3.582055 -9.903639 -8.318538 -2.769505 21.608118 -0.543896 -6.119747 7.259595 5.560802 -3.415833 -3.281811 -16.328982 -13.101028 -21.980310 20.179923 -18.389436 17.336082 6.692956 -7.426571 13.102827 0.000000 0.000000 0.000000 10.577752 -9.330321 -27.025593 37.358829 -46.424778 16.499514 25.197971 -26.131800 10.135128 0.000000 0.000000 0.000000 -7.125000 0.000000 0.000000 -1.289260 18.805891 -0.804916 0.000000 0.000000 0.000000 -30.527737 -57.026078 38.377944 -147.475292 -42.961512 -106.902901 1.443629 -60.714066 20.014838 0.000000 0.000000 0.000000 7.125000 0.000000 0.000000 28.413109 47.771333 -2.104387
6.250286 15.392550 1.294468 177.144893 -58.723008 -173.541679 0.000000 0.000000 0.000000 -9.500619 16.609218 -31.380644 9.746434 17.264802 58.637537 2.683172 2.149415 -31.802768 0.430502 -4.210625 -11.669962 0.000000 0.000000 0.000000 0.003672 12.867337 -33.561227 -6.593258 -14.979584 47.318760 -0.527847 9.873954 -13.728826 -0.305418 3.553277 -9.823095 -7.661754 -2.641707 21.288325 -0.924055 -5.816046 7.369514 4.691162 -3.267686 -3.161335 -15.583735 -13.368799 -21.763794 20.422492 -19.097050 16.959755 6.475419 -7.704559 13.022197 0.000000 0.000000 0.000000 11.472253 -9.764289 -28.289950 37.176881 -46.305409 16.367799 25.350120 -26.431840 10.402899 0.000000 0.000000 0.000000 -7.125000 0.000000 0.000000 -1.195604 18.497848 -0.754682 0.000000 0.000000 0.000000 -30.740592 -56.378829 36.969441 -147.647449 -42.826477 -107.020141 1.942560 -60.411812 20.027014 0.000000 0.000000 0.000000 7.125000 0.000000 0.000000 28.856273 47.713266 -2.098342
